<svg width="150" height="225" viewBox="0 0 150 225" fill="none" xmlns="http://www.w3.org/2000/svg">
<mask id="mask0_13_732" style="mask-type:luminance" maskUnits="userSpaceOnUse" x="0" y="0" width="150" height="225">
<path d="M0 0H150V224.89H0V0Z" fill="white"/>
</mask>
<g mask="url(#mask0_13_732)">
<path d="M75.0068 224.89C116.41 224.89 149.972 191.327 149.972 149.925C149.972 135.872 146.105 122.728 139.378 111.488L75.0098 -0.00915527L10.5903 111.568C3.89624 122.789 0.0449219 135.907 0.0449219 149.924C0.0433958 191.327 33.6051 224.89 75.0068 224.89ZM75.0068 124.838C88.8602 124.838 100.092 136.07 100.091 149.925C100.091 163.779 88.8587 175.011 75.0068 175.011C61.1518 175.011 49.9198 163.779 49.9198 149.925C49.9198 136.07 61.1503 124.838 75.0068 124.838Z" fill="#B06FFF"/>
</g>
</svg>
